<svg xmlns="http://www.w3.org/2000/svg" viewBox="0 0 287 191"><path fill="#0081FB" d="M31.06 126.42c0 10.97 2.41 19.39 5.56 24.48 4.13 6.68 10.29 9.51 16.57 9.51 8.1 0 15.51-2.01 29.79-21.76 11.44-15.83 24.92-38.05 33.99-51.98l15.36-23.6c10.67-16.39 23.02-34.61 37.18-46.96C181.66 5.59 194.13 0 206.68 0c21.07 0 41.14 12.21 56.5 35.11C279.99 60.18 288.16 91.76 288.16 124.35c0 19.38-3.82 33.62-10.32 44.87-6.28 10.88-18.52 21.75-39.11 21.75v-31.06c17.63 0 22.03-16.2 22.03-34.74 0-26.42-6.16-55.74-19.73-76.69-9.63-14.86-22.12-23.94-35.86-23.94-14.86 0-26.81 11.21-40.24 31.2-7.14 10.62-14.47 23.56-22.7 38.16l-9.06 16.05c-18.21 32.27-22.83 39.62-31.95 51.77-15.98 21.29-29.62 29.35-47.58 29.35-21.27 0-34.72-9.21-43.05-23.09C3.27 156.66 0 142.23 0 125.79l31.06.63Z"/><path fill="#0064E1" d="M24.49 37.3C38.73 15.35 59.28 0 82.85 0c13.65 0 27.22 4.04 41.39 15.61 15.5 12.65 32.02 33.48 52.63 67.81l7.39 12.32c17.84 29.72 27.99 45.01 33.93 52.22 7.64 9.26 12.99 12.02 19.94 12.02 17.63 0 22.03-16.2 22.03-34.74l27.4-.86c0 19.38-3.82 33.62-10.32 44.87-6.28 10.88-18.52 21.75-39.11 21.75-12.8 0-24.14-2.78-36.68-14.61-9.64-9.08-20.91-25.21-29.58-39.71l-25.79-43.08c-12.94-21.62-24.81-37.74-31.68-45.04-7.39-7.85-16.89-17.33-32.05-17.33-12.27 0-22.69 8.61-31.41 21.78L24.49 37.3Z"/><path fill="#0082FB" d="M82.35 31.23c-12.27 0-22.69 8.61-31.41 21.78-12.33 18.61-19.88 46.33-19.88 72.92 0 10.97 2.41 19.39 5.56 24.48L24.49 37.3c-.21.35-.42.71-.62 1.07 8.72-13.17 19.14-21.78 31.41-21.78 15.16 0 24.66 9.48 32.05 17.33-7.65-1.65-13.98-2.69-17.98-2.69Z"/></svg>
